<?xml version="1.0" encoding="UTF-8"?>
<svg width="114px" height="29px" viewBox="0 0 114 29" version="1.1" xmlns="http://www.w3.org/2000/svg" xmlns:xlink="http://www.w3.org/1999/xlink">
    <!-- Generator: Sketch 53 (72520) - https://sketchapp.com -->
    <title>moonly</title>
    <desc>Created with Sketch.</desc>
    <g id="Design" stroke="none" stroke-width="1" fill="none" fill-rule="evenodd">
        <g id="Index-moonly" transform="translate(-304.000000, -5007.000000)" fill="#FFFFFF" fill-rule="nonzero">
            <path d="M324.62,5013.95 C326.62001,5013.95 328.204994,5014.52999 329.375,5015.69 C330.545006,5016.85001 331.13,5018.56999 331.13,5020.85 L331.13,5030 L328.25,5030 L328.25,5021.18 C328.25,5019.63999 327.895004,5018.48 327.185,5017.7 C326.474996,5016.92 325.460007,5016.53 324.14,5016.53 C322.679993,5016.53 321.520004,5016.985 320.66,5017.895 C319.799996,5018.805 319.37,5020.10999 319.37,5021.81 L319.37,5030 L316.49,5030 L316.49,5021.18 C316.49,5019.63999 316.135004,5018.48 315.425,5017.7 C314.714996,5016.92 313.700007,5016.53 312.38,5016.53 C310.919993,5016.53 309.760004,5016.985 308.9,5017.895 C308.039996,5018.805 307.61,5020.10999 307.61,5021.81 L307.61,5030 L304.73,5030 L304.73,5014.1 L307.49,5014.1 L307.49,5016.47 C308.070003,5015.65 308.829995,5015.025 309.77,5014.595 C310.710005,5014.165 311.779994,5013.95 312.98,5013.95 C314.220006,5013.95 315.319995,5014.2 316.28,5014.7 C317.240005,5015.2 317.979997,5015.93 318.5,5016.89 C319.100003,5015.97 319.934995,5015.25 321.005,5014.73 C322.075005,5014.21 323.279993,5013.95 324.62,5013.95 Z M343.34,5030.18 C341.759992,5030.18 340.340006,5029.83 339.08,5029.13 C337.819994,5028.43 336.835004,5027.46501 336.125,5026.235 C335.414996,5025.00499 335.06,5023.61001 335.06,5022.05 C335.06,5020.48999 335.414996,5019.09501 336.125,5017.865 C336.835004,5016.63499 337.819994,5015.675 339.08,5014.985 C340.340006,5014.295 341.759992,5013.95 343.34,5013.95 C344.920008,5013.95 346.334994,5014.295 347.585,5014.985 C348.835006,5015.675 349.814996,5016.63499 350.525,5017.865 C351.235004,5019.09501 351.59,5020.48999 351.59,5022.05 C351.59,5023.61001 351.235004,5025.00499 350.525,5026.235 C349.814996,5027.46501 348.835006,5028.43 347.585,5029.13 C346.334994,5029.83 344.920008,5030.18 343.34,5030.18 Z M343.34,5027.66 C344.360005,5027.66 345.274996,5027.425 346.085,5026.955 C346.895004,5026.485 347.529998,5025.825 347.99,5024.975 C348.450002,5024.125 348.68,5023.15001 348.68,5022.05 C348.68,5020.94999 348.450002,5019.975 347.99,5019.125 C347.529998,5018.275 346.895004,5017.62 346.085,5017.16 C345.274996,5016.7 344.360005,5016.47 343.34,5016.47 C342.319995,5016.47 341.405004,5016.7 340.595,5017.16 C339.784996,5017.62 339.145002,5018.275 338.675,5019.125 C338.204998,5019.975 337.97,5020.94999 337.97,5022.05 C337.97,5023.15001 338.204998,5024.125 338.675,5024.975 C339.145002,5025.825 339.784996,5026.485 340.595,5026.955 C341.405004,5027.425 342.319995,5027.66 343.34,5027.66 Z M362.39,5030.18 C360.809992,5030.18 359.390006,5029.83 358.13,5029.13 C356.869994,5028.43 355.885004,5027.46501 355.175,5026.235 C354.464996,5025.00499 354.11,5023.61001 354.11,5022.05 C354.11,5020.48999 354.464996,5019.09501 355.175,5017.865 C355.885004,5016.63499 356.869994,5015.675 358.13,5014.985 C359.390006,5014.295 360.809992,5013.95 362.39,5013.95 C363.970008,5013.95 365.384994,5014.295 366.635,5014.985 C367.885006,5015.675 368.864996,5016.63499 369.575,5017.865 C370.285004,5019.09501 370.64,5020.48999 370.64,5022.05 C370.64,5023.61001 370.285004,5025.00499 369.575,5026.235 C368.864996,5027.46501 367.885006,5028.43 366.635,5029.13 C365.384994,5029.83 363.970008,5030.18 362.39,5030.18 Z M362.39,5027.66 C363.410005,5027.66 364.324996,5027.425 365.135,5026.955 C365.945004,5026.485 366.579998,5025.825 367.04,5024.975 C367.500002,5024.125 367.73,5023.15001 367.73,5022.05 C367.73,5020.94999 367.500002,5019.975 367.04,5019.125 C366.579998,5018.275 365.945004,5017.62 365.135,5017.16 C364.324996,5016.7 363.410005,5016.47 362.39,5016.47 C361.369995,5016.47 360.455004,5016.7 359.645,5017.16 C358.834996,5017.62 358.195002,5018.275 357.725,5019.125 C357.254998,5019.975 357.02,5020.94999 357.02,5022.05 C357.02,5023.15001 357.254998,5024.125 357.725,5024.975 C358.195002,5025.825 358.834996,5026.485 359.645,5026.955 C360.455004,5027.425 361.369995,5027.66 362.39,5027.66 Z M383.12,5013.95 C385.14001,5013.95 386.744994,5014.53499 387.935,5015.705 C389.125006,5016.87501 389.72,5018.58999 389.72,5020.85 L389.72,5030 L386.84,5030 L386.84,5021.18 C386.84,5019.63999 386.470004,5018.48 385.73,5017.7 C384.989996,5016.92 383.930007,5016.53 382.55,5016.53 C380.989992,5016.53 379.760004,5016.985 378.86,5017.895 C377.959995,5018.805 377.51,5020.10999 377.51,5021.81 L377.51,5030 L374.63,5030 L374.63,5014.1 L377.39,5014.1 L377.39,5016.5 C377.970003,5015.68 378.754995,5015.05 379.745,5014.61 C380.735005,5014.17 381.859994,5013.95 383.12,5013.95 Z M395.06,5007.74 L397.94,5007.74 L397.94,5030 L395.06,5030 L395.06,5007.74 Z M417.5,5014.1 L409.79,5031.59 C409.109997,5033.21001 408.315005,5034.35 407.405,5035.01 C406.494995,5035.67 405.400006,5036 404.12,5036 C403.339996,5036 402.585004,5035.875 401.855,5035.625 C401.124996,5035.375 400.520002,5035.01 400.04,5034.53 L401.27,5032.37 C402.090004,5033.15 403.039995,5033.54 404.12,5033.54 C404.820003,5033.54 405.404998,5033.355 405.875,5032.985 C406.345002,5032.615 406.769998,5031.98 407.15,5031.08 L407.66,5029.97 L400.64,5014.1 L403.64,5014.1 L409.19,5026.82 L414.68,5014.1 L417.5,5014.1 Z" id="moonly"></path>
        </g>
    </g>
</svg>