<?xml version="1.0" encoding="UTF-8"?>
<svg width="114px" height="29px" viewBox="0 0 114 29" version="1.1" xmlns="http://www.w3.org/2000/svg" xmlns:xlink="http://www.w3.org/1999/xlink">
    <!-- Generator: Sketch 53 (72520) - https://sketchapp.com -->
    <title>moonly</title>
    <desc>Created with Sketch.</desc>
    <g id="Design" stroke="none" stroke-width="1" fill="none" fill-rule="evenodd">
        <g id="Index-moonly" transform="translate(-348.000000, -43.000000)" fill-rule="nonzero">
            <g id="moonly" transform="translate(348.730000, 43.740000)">
                <path d="M19.89,6.21 C21.89001,6.21 23.4749942,6.7899942 24.645,7.95 C25.8150059,9.1100058 26.4,10.8299886 26.4,13.11 L26.4,22.26 L23.52,22.26 L23.52,13.44 C23.52,11.8999923 23.1650036,10.7400039 22.455,9.96 C21.7449965,9.1799961 20.7300066,8.79 19.41,8.79 C17.9499927,8.79 16.7900043,9.24499545 15.93,10.155 C15.0699957,11.0650046 14.64,12.3699915 14.64,14.07 L14.64,22.26 L11.76,22.26 L11.76,13.44 C11.76,11.8999923 11.4050036,10.7400039 10.695,9.96 C9.98499645,9.1799961 8.9700066,8.79 7.65,8.79 C6.1899927,8.79 5.0300043,9.24499545 4.17,10.155 C3.3099957,11.0650046 2.88,12.3699915 2.88,14.07 L2.88,22.26 L3.12638804e-13,22.26 L3.12638804e-13,6.36 L2.76,6.36 L2.76,8.73 C3.3400029,7.9099959 4.0999953,7.28500215 5.04,6.855 C5.9800047,6.42499785 7.049994,6.21 8.25,6.21 C9.4900062,6.21 10.5899952,6.4599975 11.55,6.96 C12.5100048,7.4600025 13.2499974,8.1899952 13.77,9.15 C14.370003,8.2299954 15.2049947,7.5100026 16.275,6.99 C17.3450054,6.4699974 18.5499933,6.21 19.89,6.21 Z M38.61,22.44 C37.0299921,22.44 35.6100063,22.0900035 34.35,21.39 C33.0899937,20.6899965 32.1050036,19.7250062 31.395,18.495 C30.6849965,17.2649939 30.33,15.8700078 30.33,14.31 C30.33,12.7499922 30.6849965,11.3550062 31.395,10.125 C32.1050036,8.89499385 33.0899937,7.93500345 34.35,7.245 C35.6100063,6.55499655 37.0299921,6.21 38.61,6.21 C40.1900079,6.21 41.6049938,6.55499655 42.855,7.245 C44.1050063,7.93500345 45.0849965,8.89499385 45.795,10.125 C46.5050036,11.3550062 46.86,12.7499922 46.86,14.31 C46.86,15.8700078 46.5050036,17.2649939 45.795,18.495 C45.0849965,19.7250062 44.1050063,20.6899965 42.855,21.39 C41.6049938,22.0900035 40.1900079,22.44 38.61,22.44 Z M38.61,19.92 C39.6300051,19.92 40.544996,19.6850024 41.355,19.215 C42.1650041,18.7449977 42.7999977,18.0850043 43.26,17.235 C43.7200023,16.3849958 43.95,15.4100055 43.95,14.31 C43.95,13.2099945 43.7200023,12.2350043 43.26,11.385 C42.7999977,10.5349958 42.1650041,9.8800023 41.355,9.42 C40.544996,8.9599977 39.6300051,8.73 38.61,8.73 C37.5899949,8.73 36.6750041,8.9599977 35.865,9.42 C35.054996,9.8800023 34.4150024,10.5349958 33.945,11.385 C33.4749977,12.2350043 33.24,13.2099945 33.24,14.31 C33.24,15.4100055 33.4749977,16.3849958 33.945,17.235 C34.4150024,18.0850043 35.054996,18.7449977 35.865,19.215 C36.6750041,19.6850024 37.5899949,19.92 38.61,19.92 Z" id="mo" fill="#9492B6"></path>
                <path d="M57.66,22.44 C56.0799921,22.44 54.6600063,22.0900035 53.4,21.39 C52.1399937,20.6899965 51.1550036,19.7250061 50.445,18.495 C49.7349965,17.2649938 49.38,15.8700078 49.38,14.31 C49.38,12.7499922 49.7349965,11.3550061 50.445,10.125 C51.1550036,8.89499385 52.1399937,7.93500345 53.4,7.245 C54.6600063,6.55499655 56.0799921,6.21 57.66,6.21 C59.2400079,6.21 60.6549938,6.55499655 61.905,7.245 C63.1550063,7.93500345 64.1349965,8.89499385 64.845,10.125 C65.5550036,11.3550061 65.91,12.7499922 65.91,14.31 C65.91,15.8700078 65.5550036,17.2649938 64.845,18.495 C64.1349965,19.7250061 63.1550063,20.6899965 61.905,21.39 C60.6549938,22.0900035 59.2400079,22.44 57.66,22.44 Z M57.66,19.92 C58.6800051,19.92 59.594996,19.6850023 60.405,19.215 C61.2150041,18.7449976 61.8499977,18.0850042 62.31,17.235 C62.7700023,16.3849957 63,15.4100055 63,14.31 C63,13.2099945 62.7700023,12.2350042 62.31,11.385 C61.8499977,10.5349957 61.2150041,9.8800023 60.405,9.42 C59.594996,8.9599977 58.6800051,8.73 57.66,8.73 C56.6399949,8.73 55.7250041,8.9599977 54.915,9.42 C54.104996,9.8800023 53.4650024,10.5349957 52.995,11.385 C52.5249977,12.2350042 52.29,13.2099945 52.29,14.31 C52.29,15.4100055 52.5249977,16.3849957 52.995,17.235 C53.4650024,18.0850042 54.104996,18.7449976 54.915,19.215 C55.7250041,19.6850023 56.6399949,19.92 57.66,19.92 Z M78.39,6.21 C80.4100101,6.21 82.0149941,6.79499415 83.205,7.965 C84.395006,9.13500585 84.99,10.8499887 84.99,13.11 L84.99,22.26 L82.11,22.26 L82.11,13.44 C82.11,11.8999923 81.7400037,10.7400039 81,9.96 C80.2599963,9.1799961 79.2000069,8.79 77.82,8.79 C76.2599922,8.79 75.0300045,9.24499545 74.13,10.155 C73.2299955,11.0650045 72.78,12.3699915 72.78,14.07 L72.78,22.26 L69.9,22.26 L69.9,6.36 L72.66,6.36 L72.66,8.76 C73.2400029,7.9399959 74.0249951,7.3100022 75.015,6.87 C76.005005,6.4299978 77.1299937,6.21 78.39,6.21 Z M90.33,-3.55271368e-15 L93.21,-3.55271368e-15 L93.21,22.26 L90.33,22.26 L90.33,-3.55271368e-15 Z M112.77,6.36 L105.06,23.85 C104.379997,25.4700081 103.585005,26.6099967 102.675,27.27 C101.764995,27.9300033 100.670006,28.26 99.39,28.26 C98.6099961,28.26 97.8550037,28.1350012 97.125,27.885 C96.3949964,27.6349987 95.7900024,27.2700024 95.31,26.79 L96.54,24.63 C97.3600041,25.4100039 98.3099946,25.8 99.39,25.8 C100.090004,25.8 100.674998,25.6150019 101.145,25.245 C101.615002,24.8749981 102.039998,24.2400045 102.42,23.34 L102.93,22.23 L95.91,6.36 L98.91,6.36 L104.46,19.08 L109.95,6.36 L112.77,6.36 Z" id="only" fill="#3A386B"></path>
            </g>
        </g>
    </g>
</svg>