<?xml version="1.0" encoding="UTF-8"?>
<svg width="2518px" height="920px" viewBox="0 0 2518 920" version="1.1" xmlns="http://www.w3.org/2000/svg" xmlns:xlink="http://www.w3.org/1999/xlink">
    <!-- Generator: Sketch 53.2 (72643) - https://sketchapp.com -->
    <title>wave-dark</title>
    <desc>Created with Sketch.</desc>
    <g id="Design" stroke="none" stroke-width="1" fill="none" fill-rule="evenodd" opacity="0.100000001">
        <path d="M1862.20537,231.222718 C1862.20537,231.222718 1663.28337,319.206285 1509.68537,178.908165 C1356.08737,38.6100451 1142.05737,2.14838686 1142.05737,2.14838686 C1142.05737,2.14838686 985.941365,-16.0824423 865.916699,53.6702952 C745.892032,123.423033 359.798699,11.6601238 359.798699,11.6601238 C359.798699,11.6601238 197.203045,-32.9277284 0,52.4210871 L0,850.75385 C115.186749,846.04237 350.408237,813.017619 534.380032,634.678893 C787.858699,388.959022 917.116032,341.400337 1131.98537,431.761838 C1346.8547,522.123339 1457.6467,417.494233 1457.6467,417.494233 C1457.6467,417.494233 1670.83737,298.163152 1732.94803,467.215252 C1795.0587,636.264182 1954.53203,793.207842 1954.53203,793.207842 C1954.53203,793.207842 2098.89737,964.419106 2367.48403,908.933974 C2435.66811,894.847092 2483.91635,894.977086 2518,902.989139 L2518,243.489688 C2429.3899,285.055978 2281.31807,334.792851 2161.00803,277.988758 C1976.3547,190.797836 1862.20537,231.222718 1862.20537,231.222718 Z" id="wave-dark" fill="#10136B"></path>
    </g>
</svg>