<?xml version="1.0" encoding="UTF-8"?>
<svg width="1850px" height="676px" viewBox="0 0 1850 676" version="1.1" xmlns="http://www.w3.org/2000/svg" xmlns:xlink="http://www.w3.org/1999/xlink">
    <!-- Generator: Sketch 53.2 (72643) - https://sketchapp.com -->
    <title>wave-white</title>
    <desc>Created with Sketch.</desc>
    <g id="Design" stroke="none" stroke-width="1" fill="none" fill-rule="evenodd" opacity="0.100000001">
        <path d="M1587.7144,204.261305 C1452.04773,140.194932 1368.18107,169.898432 1368.18107,169.898432 C1368.18107,169.898432 1222.03107,234.547226 1109.18107,131.458608 C996.331067,28.3699897 839.081067,1.5785973 839.081067,1.5785973 C839.081067,1.5785973 724.381067,-11.8170989 636.197733,39.4359995 C548.0144,90.689098 264.347733,8.56765618 264.347733,8.56765618 C264.347733,8.56765618 144.887067,-24.1947221 0,38.5181031 L0,625.119133 C84.6288667,621.657219 257.448467,597.391207 392.6144,466.351013 C578.847733,285.800325 673.8144,250.855031 831.681067,317.25109 C989.547733,383.647149 1070.94773,306.767502 1070.94773,306.767502 C1070.94773,306.767502 1227.58107,219.085099 1273.2144,343.301642 C1318.84773,467.515856 1436.0144,582.835327 1436.0144,582.835327 C1436.0144,582.835327 1542.08107,708.638387 1739.4144,667.868877 C1789.50993,657.518081 1824.9584,657.613598 1850,663.500715 L1850,178.911988 C1784.89727,209.454175 1676.1074,245.999964 1587.7144,204.261305" id="wave-white" fill="#FFFFFF" transform="translate(925.000000, 338.000000) scale(1, -1) translate(-925.000000, -338.000000) "></path>
    </g>
</svg>